<?xml version="1.0" encoding="iso-8859-1"?>
<!-- Uploaded to: SVG Repo, www.svgrepo.com, Generator: SVG Repo Mixer Tools -->
<svg height="800px" width="800px" version="1.1" id="Layer_1" xmlns="http://www.w3.org/2000/svg" xmlns:xlink="http://www.w3.org/1999/xlink" 
	 viewBox="0 0 512 512" xml:space="preserve">
<circle style="fill:#D7F3FF;" cx="256.003" cy="256.004" r="249.99"/>
<g>
	<path style="fill:#90BC42;" d="M425.17,326.878c10.402,0,18.832,8.43,18.832,18.832c0,10.414-8.43,18.844-18.832,18.844
		c-5.616,0-10.655-2.477-14.106-6.374c-3.451,3.896-8.478,6.374-14.094,6.374c-5.616,0-10.643-2.477-14.094-6.374
		c-3.451,3.896-8.478,6.374-14.094,6.374c-5.616,0-10.643-2.477-14.094-6.374c-3.451,3.896-8.49,6.374-14.106,6.374
		c-10.402,0-18.832-8.43-18.832-18.844c0-10.402,8.43-18.832,18.832-18.832c5.616,0,10.655,2.465,14.106,6.362
		c3.451-3.896,8.478-6.362,14.094-6.362c5.616,0,10.643,2.465,14.094,6.362c3.451-3.896,8.478-6.362,14.094-6.362
		c5.616,0,10.643,2.465,14.094,6.362C414.515,329.344,419.554,326.878,425.17,326.878z"/>
	<path style="fill:#90BC42;" d="M89.376,326.878c10.414,0,18.844,8.43,18.844,18.832c0,10.414-8.43,18.844-18.844,18.844
		c-5.616,0-10.643-2.477-14.094-6.374c-3.451,3.896-8.478,6.374-14.094,6.374s-10.643-2.477-14.094-6.374
		c-3.451,3.896-8.478,6.374-14.094,6.374c-0.782,0-1.563-0.048-2.321-0.156c-5.003-10.378-9.308-21.153-12.855-32.265
		c0.373,0.349,0.734,0.722,1.07,1.106c3.451-3.896,8.478-6.362,14.106-6.362c5.616,0,10.643,2.465,14.094,6.362
		c3.451-3.896,8.478-6.362,14.094-6.362s10.643,2.465,14.094,6.362C78.733,329.344,83.76,326.878,89.376,326.878z"/>
</g>
<path style="fill:#9AD14B;" d="M470.314,384.71l0.012,0.012c-43.725,72.659-123.348,121.267-214.322,121.267
	c-90.986,0-170.621-48.608-214.346-121.279h19.53h28.188h80.632h16.102h21.718h22.464h21.694h22.464h66.129h28.2h28.188h28.2
	H470.314z"/>
<g>
	<path style="fill:#CCCCCC;" d="M268.367,349.775c6.073,0.902,10.27,6.542,9.368,12.615l-3.283,22.32h-22.464l3.776-25.567
		C256.654,353.082,262.306,348.885,268.367,349.775z"/>
	<path style="fill:#CCCCCC;" d="M225.146,343.402c6.073,0.902,10.258,6.542,9.368,12.615l-4.221,28.693h-22.464l4.714-31.94
		C213.433,346.709,219.085,342.512,225.146,343.402z"/>
	<path style="fill:#CCCCCC;" d="M181.926,337.04c6.073,0.89,10.258,6.53,9.368,12.603l-5.183,35.067h-16.102l-6.205-0.914l5.52-37.4
		C170.213,340.335,175.865,336.138,181.926,337.04z"/>
</g>
<g>
	<polygon style="fill:#F2F2F2;" points="250.015,95.047 228.754,91.908 235.067,49.085 300.607,58.741 294.282,101.577 
		273.021,98.438 	"/>
	<polygon style="fill:#F2F2F2;" points="266.659,141.586 243.654,138.195 220.661,134.804 200.951,131.906 200.951,131.894 
		207.312,88.757 228.754,91.908 250.015,95.047 273.021,98.438 294.282,101.577 315.724,104.74 309.362,147.876 289.664,144.978 	
		"/>
	<polygon style="fill:#F2F2F2;" points="260.297,184.735 237.292,181.343 214.299,177.952 194.589,175.054 200.951,131.906 
		220.661,134.804 243.654,138.195 266.659,141.586 289.664,144.978 309.362,147.876 303.001,191.024 283.303,188.126 	"/>
	<polygon style="fill:#F2F2F2;" points="253.936,227.883 230.931,224.479 207.937,221.088 188.227,218.19 194.589,175.054 
		214.299,177.952 237.292,181.343 260.297,184.735 283.303,188.126 303.001,191.024 296.639,234.172 276.929,231.274 	"/>
	<polygon style="fill:#F2F2F2;" points="290.277,277.32 224.569,267.628 201.564,264.236 181.866,261.338 188.227,218.19 
		207.937,221.088 230.931,224.479 253.936,227.883 276.929,231.274 296.639,234.172 	"/>
	<polygon style="fill:#F2F2F2;" points="264.206,317.558 241.213,314.167 218.207,310.776 195.202,307.385 175.504,304.486 
		175.504,304.474 181.866,261.338 201.564,264.236 224.569,267.628 290.277,277.32 283.916,320.457 	"/>
	<path style="fill:#F2F2F2;" d="M283.916,320.457v0.012l-6.181,41.922c0.902-6.073-3.295-11.713-9.368-12.615
		c-6.061-0.89-11.713,3.307-12.603,9.368l-3.776,25.567h-21.694l4.221-28.693c0.89-6.073-3.295-11.713-9.368-12.615
		c-6.061-0.89-11.713,3.307-12.603,9.368l-4.714,31.94h-21.718l5.183-35.067c0.89-6.073-3.295-11.713-9.368-12.603
		c-6.061-0.902-11.713,3.295-12.603,9.356l6.181-41.91l19.698,2.898l23.005,3.391l23.005,3.391l22.993,3.391L283.916,320.457z"/>
</g>
<path style="fill:#333333;" d="M256.001,0.001C114.842,0.001,0,114.841,0,256s114.842,255.999,256.001,255.999S512,397.158,512,256
	C512,114.841,397.159,0.001,256.001,0.001z M256.001,12.026c134.528,0,243.974,109.446,243.974,243.974
	c0,44.703-12.097,86.628-33.17,122.697h-35.625v-8.895c10.803-2.7,18.839-12.46,18.839-24.087c0-13.704-11.149-24.853-24.852-24.853
	c-5.072,0-9.984,1.565-14.098,4.406c-4.114-2.842-9.024-4.406-14.097-4.406c-5.072,0-9.984,1.565-14.098,4.406
	c-4.114-2.842-9.025-4.406-14.098-4.406s-9.983,1.565-14.096,4.406c-4.114-2.842-9.025-4.406-14.098-4.406
	c-13.704,0-24.852,11.149-24.852,24.853c0,11.628,8.037,21.388,18.839,24.087v8.895h-53.157l7.593-51.541
	c2.798-0.15,5.201-2.23,5.626-5.107c0.426-2.881-1.271-5.586-3.911-6.534l4.646-31.505c2.8-0.149,5.202-2.228,5.627-5.107
	c0.426-2.881-1.271-5.585-3.911-6.534l4.646-31.506c2.798-0.149,5.202-2.228,5.627-5.107c0.426-2.881-1.271-5.585-3.91-6.532
	l4.646-31.506c2.8-0.149,5.204-2.228,5.627-5.107c0.426-2.881-1.271-5.586-3.911-6.534l4.646-31.505
	c2.798-0.149,5.202-2.228,5.627-5.107c0.426-2.881-1.271-5.585-3.911-6.534l4.646-31.506c2.798-0.149,5.202-2.23,5.627-5.109
	c0.485-3.285-1.786-6.341-5.071-6.826l-20.26-2.987l4.56-30.932l3.604,0.532c0.297,0.043,0.593,0.065,0.884,0.065
	c2.933,0,5.501-2.149,5.941-5.136c0.485-3.285-1.786-6.341-5.071-6.826l-84.64-12.48c-3.288-0.483-6.341,1.787-6.826,5.071
	c-0.485,3.285,1.786,6.341,5.071,6.826l3.604,0.532l-4.56,30.93l-15.487-2.286c-0.022-0.004-0.043-0.004-0.065-0.006l-4.704-0.694
	c-3.288-0.485-6.341,1.787-6.826,5.071c-0.426,2.881,1.271,5.585,3.911,6.534l-4.643,31.487c-2.804,0.144-5.205,2.245-5.629,5.127
	c-0.426,2.881,1.271,5.585,3.91,6.532l-4.643,31.487c-2.803,0.144-5.205,2.246-5.629,5.127c-0.426,2.881,1.27,5.585,3.91,6.532
	l-4.643,31.486c-2.806,0.143-5.205,2.246-5.629,5.127c-0.426,2.881,1.27,5.585,3.91,6.532l-4.643,31.487
	c-2.803,0.144-5.204,2.246-5.628,5.127c-0.426,2.881,1.27,5.584,3.908,6.532l-4.643,31.488c-2.806,0.144-5.205,2.245-5.629,5.127
	c-0.426,2.881,1.271,5.586,3.911,6.534l-10.218,69.262H95.389v-8.895c10.805-2.7,18.844-12.461,18.844-24.091
	c0-13.7-11.15-24.845-24.857-24.845c-5.072,0-9.983,1.562-14.095,4.4c-4.113-2.838-9.022-4.4-14.094-4.4s-9.981,1.562-14.094,4.4
	c-4.113-2.838-9.023-4.4-14.095-4.4c-4.015,0-7.926,0.978-11.422,2.79c-6.21-21.489-9.55-44.187-9.55-67.653
	C12.026,121.472,121.473,12.026,256.001,12.026z M425.166,358.542c-3.655,0-7.152-1.583-9.595-4.342
	c-1.141-1.289-2.782-2.028-4.502-2.028s-3.361,0.738-4.502,2.028c-2.442,2.76-5.939,4.342-9.594,4.342s-7.152-1.583-9.595-4.342
	c-1.141-1.289-2.782-2.028-4.502-2.028s-3.361,0.738-4.502,2.028c-2.442,2.76-5.939,4.342-9.595,4.342
	c-3.653,0-7.15-1.583-9.594-4.342c-1.141-1.289-2.782-2.028-4.502-2.028s-3.361,0.738-4.502,2.028
	c-2.442,2.76-5.939,4.342-9.595,4.342c-7.072,0-12.827-5.754-12.827-12.828c0-7.072,5.754-12.828,12.827-12.828
	c3.655,0,7.152,1.583,9.595,4.342c1.141,1.289,2.782,2.028,4.502,2.028c1.721,0,3.361-0.738,4.502-2.028
	c2.442-2.76,5.939-4.342,9.594-4.342c3.655,0,7.152,1.583,9.595,4.342c1.141,1.289,2.782,2.028,4.502,2.028
	c1.721,0,3.361-0.738,4.502-2.028c2.442-2.76,5.939-4.342,9.595-4.342c3.653,0,7.15,1.583,9.594,4.342
	c1.141,1.289,2.782,2.028,4.502,2.028c1.721,0,3.361-0.738,4.502-2.028c2.442-2.76,5.939-4.342,9.595-4.342
	c7.072,0,12.827,5.754,12.827,12.828C437.993,352.788,432.238,358.542,425.166,358.542z M346.597,369.812
	c2.887-0.725,5.629-1.954,8.085-3.65c2.454,1.696,5.196,2.925,8.084,3.65v8.886h-16.167v-8.886H346.597z M374.79,369.812
	c2.887-0.725,5.629-1.954,8.085-3.65c2.454,1.696,5.198,2.925,8.085,3.65v8.886h-16.169v-8.886H374.79z M402.986,369.812
	c2.887-0.725,5.628-1.954,8.084-3.65c2.454,1.696,5.198,2.925,8.085,3.65v8.886h-16.167v-8.886H402.986z M228.565,355.142
	l-3.465,23.555h-10.306l3.698-25.054c0.196-1.34,0.907-2.525,1.999-3.337c1.094-0.813,2.435-1.152,3.771-0.956
	C227.043,349.763,228.972,352.362,228.565,355.142z M226.019,337.454c-4.514-0.665-9.03,0.471-12.702,3.2
	c-3.674,2.73-6.061,6.722-6.724,11.239l-3.956,26.805h-9.562l4.166-28.183c1.369-9.343-5.113-18.055-14.432-19.42
	c-1.738-0.26-3.472-0.246-5.158,0.014l2.921-19.8l96.516,14.231l-2.917,19.803c-1.52-0.734-3.176-1.254-4.933-1.515
	c-9.34-1.375-18.055,5.107-19.425,14.438l-3.017,20.432h-9.542l3.208-21.809C241.832,347.558,235.356,338.84,226.019,337.454z
	 M170.634,378.697l4.638-31.427c0.196-1.34,0.906-2.524,1.997-3.335c1.092-0.811,2.438-1.146,3.784-0.945
	c2.773,0.406,4.697,3,4.291,5.775l-4.424,29.933h-10.287V378.697z M212.385,95.575l96.513,14.236l-4.607,31.245l-7.807-1.151
	l2.707-18.362c0.485-3.285-1.786-6.341-5.071-6.826c-3.289-0.486-6.341,1.787-6.826,5.071l-2.707,18.362l-11.105-1.638l2.708-18.361
	c0.485-3.285-1.785-6.341-5.071-6.826c-3.287-0.483-6.341,1.787-6.826,5.071l-2.708,18.362l-11.105-1.638l2.707-18.362
	c0.485-3.285-1.786-6.341-5.071-6.826c-3.287-0.483-6.341,1.787-6.826,5.071l-2.707,18.361l-11.105-1.638l2.707-18.361
	c0.485-3.285-1.786-6.341-5.071-6.826c-3.288-0.483-6.341,1.787-6.826,5.071l-2.707,18.361l-7.808-1.151L212.385,95.575z
	 M293.776,63.816l-4.56,30.932l-7.351-1.084l-2.019-0.298l2.707-18.362c0.485-3.285-1.786-6.341-5.071-6.826
	c-3.288-0.483-6.341,1.787-6.826,5.071l-2.707,18.361l-11.105-1.638l2.707-18.361c0.485-3.285-1.786-6.341-5.071-6.826
	c-3.29-0.483-6.341,1.787-6.826,5.071l-2.707,18.361l-9.37-1.383l4.56-30.931L293.776,63.816z M206.023,138.722l96.515,14.231
	l-4.608,31.25l-7.807-1.151l2.707-18.361c0.485-3.285-1.786-6.341-5.071-6.826c-3.293-0.487-6.341,1.787-6.826,5.071l-2.707,18.361
	l-11.105-1.638l2.707-18.361c0.485-3.285-1.786-6.341-5.071-6.826c-3.288-0.486-6.341,1.787-6.826,5.071l-2.707,18.362
	l-11.103-1.637l2.707-18.362c0.485-3.285-1.786-6.341-5.071-6.826c-3.29-0.488-6.341,1.787-6.826,5.071l-2.707,18.362l-11.105-1.638
	l2.707-18.361c0.485-3.285-1.786-6.341-5.071-6.826c-3.291-0.488-6.341,1.787-6.826,5.071l-2.707,18.362l-7.807-1.151
	L206.023,138.722z M199.66,181.869l96.515,14.23l-4.608,31.25l-7.807-1.151l2.708-18.362c0.485-3.285-1.786-6.341-5.071-6.826
	c-3.288-0.487-6.341,1.787-6.826,5.071l-2.708,18.362l-11.105-1.638l2.707-18.361c0.485-3.285-1.786-6.341-5.071-6.826
	c-3.291-0.488-6.341,1.787-6.826,5.071l-2.707,18.361l-11.105-1.638l2.707-18.361c0.485-3.285-1.786-6.341-5.071-6.826
	c-3.293-0.487-6.341,1.787-6.826,5.071l-2.707,18.361l-11.103-1.637l2.707-18.361c0.485-3.285-1.786-6.341-5.071-6.826
	c-3.289-0.489-6.341,1.787-6.826,5.071l-2.707,18.362l-7.808-1.151L199.66,181.869z M193.299,225.015l96.515,14.231l-4.608,31.25
	l-7.807-1.151l2.707-18.362c0.485-3.285-1.786-6.341-5.071-6.826c-3.291-0.486-6.34,1.787-6.826,5.071l-2.707,18.362l-11.103-1.638
	l2.707-18.362c0.485-3.285-1.786-6.341-5.071-6.826c-3.288-0.488-6.341,1.787-6.826,5.071l-2.707,18.362l-11.105-1.638l2.707-18.361
	c0.485-3.285-1.786-6.341-5.071-6.826c-3.29-0.488-6.341,1.787-6.826,5.071l-2.707,18.361l-11.103-1.637l2.707-18.361
	c0.485-3.285-1.786-6.341-5.071-6.826c-3.293-0.487-6.341,1.787-6.826,5.071l-2.707,18.362l-7.808-1.152L193.299,225.015z
	 M186.936,268.162l96.515,14.231l-4.608,31.25l-7.807-1.151l2.707-18.361c0.485-3.285-1.786-6.341-5.071-6.826
	c-3.289-0.487-6.341,1.787-6.826,5.071l-2.707,18.361l-11.105-1.637l2.708-18.361c0.485-3.285-1.786-6.341-5.071-6.826
	c-3.284-0.486-6.341,1.787-6.826,5.071l-2.708,18.362l-11.105-1.637l2.707-18.362c0.485-3.285-1.786-6.341-5.071-6.826
	c-3.287-0.489-6.341,1.787-6.826,5.071l-2.707,18.362l-11.105-1.638l2.707-18.361c0.485-3.285-1.786-6.341-5.071-6.826
	c-3.288-0.488-6.341,1.787-6.826,5.071l-2.707,18.362l-7.808-1.152L186.936,268.162z M261.713,360.017
	c0.196-1.341,0.907-2.527,2-3.338c1.094-0.813,2.441-1.152,3.771-0.956c2.785,0.414,4.716,3.008,4.304,5.784
	c-0.001,0.002-0.001,0.005-0.001,0.008l-2.529,17.181h-10.304L261.713,360.017z M40.097,369.514
	c2.487-0.747,4.851-1.872,6.997-3.355c2.454,1.697,5.195,2.926,8.081,3.651v8.887h-9.978
	C43.432,375.677,41.734,372.614,40.097,369.514z M89.376,358.542c-3.65,0-7.146-1.585-9.595-4.347c-1.14-1.288-2.78-2.026-4.5-2.026
	s-3.36,0.737-4.5,2.026c-2.448,2.762-5.944,4.347-9.594,4.347c-3.65,0-7.144-1.585-9.594-4.347c-1.14-1.288-2.78-2.026-4.5-2.026
	c-1.72,0-3.36,0.737-4.5,2.026c-2.086,2.355-4.937,3.843-7.992,4.234c-3.466-7.462-6.57-15.125-9.279-22.97
	c2.203-1.649,4.892-2.568,7.677-2.568c3.656,0,7.153,1.58,9.595,4.335c1.14,1.288,2.78,2.026,4.5,2.026c1.72,0,3.36-0.737,4.5-2.026
	c2.441-2.756,5.938-4.335,9.594-4.335c3.656,0,7.152,1.58,9.594,4.335c1.14,1.288,2.78,2.026,4.5,2.026s3.36-0.737,4.5-2.026
	c2.441-2.756,5.938-4.335,9.595-4.335c7.076,0,12.831,5.751,12.831,12.819C102.208,352.786,96.452,358.542,89.376,358.542z
	 M67.201,369.81c2.885-0.725,5.627-1.955,8.081-3.651c2.454,1.697,5.196,2.926,8.082,3.652v8.887H67.202v-8.888H67.201z
	 M256.001,499.975c-84.762,0-159.553-43.457-203.299-109.252H459.3C415.554,456.518,340.762,499.975,256.001,499.975z"/>
</svg>